<svg version="1.1" id="Map" class="gen-by-synoptic-designer" xmlns="http://www.w3.org/2000/svg" xmlns:xlink="http://www.w3.org/1999/xlink" viewBox="0 0 2550 1650" xml:space="preserve"><polygon id="28" title="" points="616,462,616,477,614,477,614,493,585,493,585,462" /><polygon id="29" title="" points="649,479,649,510,618,510,618,479" /><polygon id="30" title="" points="614,498,614,529,585,529,585,498" /><polygon id="31" title="" points="647,515,647,529,649,529,649,546,618,546,618,515" /><polygon id="32" title="" points="744,462,744,538,698,538,698,488,697,488,697,462" /><polygon id="33" title="" points="742,544,742,575,693,575,693,544" /><polygon id="34" title="" points="742,578,742,609,707,609,707,578" /><polygon id="35" title="" points="679,582,679,595,677,595,677,614,648,614,648,601,649,601,649,597,648,597,648,582" /><polygon id="36" title="" points="646,567,646,582,645,582,645,597,618,597,618,567" /><polygon id="37" title="" points="616,550,616,564,614,564,614,580,585,580,585,550" /><polygon id="38" title="" points="614,586,614,617,616,617,585,617,585,586" /><polygon id="39" title="" points="645,602,645,632,646,632,646,633,618,633,618,602" /><polygon id="40" title="" points="679,618,679,649,648,649,648,618" /><polygon id="41" title="" points="712,694,712,724,684,724,684,694" /><polygon id="42" title="" points="679,677,679,707,651,707,651,691,648,691,648,677" /><polygon id="43" title="" points="646,661,646,691,618,691,618,661" /><polygon id="44" title="" points="616,644,616,674,616,673,613,673,613,674,585,674,585,644" /><polygon id="45" title="" points="613,680,613,711,585,711,585,680" /><polygon id="46" title="" points="646,696,646,727,618,727,618,696" /><polygon id="47" title="" points="679,712,679,743,648,743,648,729,651,729,651,712" /><polygon id="48" title="" points="712,730,712,761,681,761,681,746,684,746,684,730" /><polygon id="49" title="" points="688,781,688,812,660,812,660,781" /><polygon id="50" title="" points="655,763,655,794,626,794,626,763" /><polygon id="51" title="" points="624,747,624,762,621,762,621,778,593,778,593,762,591,762,591,747" /><polygon id="52" title="" points="621,782,621,813,591,813,591,798,593,798,593,782" /><polygon id="53" title="" points="655,799,655,830,626,830,626,799" /><polygon id="54" title="" points="688,817,688,831,691,831,691,848,658,848,658,830,660,830,660,817" /><polygon id="55" title="" points="646,884,646,913,616,913,616,884" /><polygon id="56" title="" points="646,917,646,946,616,946,616,917" /><polygon id="57" title="" points="612,884,612,913,581,913,581,914,581,884" /><polygon id="58" title="" points="612,917,612,946,581,946,581,948,581,916,581,917" /><polygon id="59" title="" points="544,876,544,905,516,905,516,876" /><polygon id="60" title="" points="544,909,544,938,516,938,516,909" /><polygon id="61" title="" points="511,876,511,905,481,905,481,906,479,906,479,875,481,875,481,876" /><polygon id="62" title="" points="511,909,511,938,481,938,481,939,479,939,479,908,481,908,481,909" /><polygon id="63" title="" points="428,875,428,904,397,904,397,875" /><polygon id="64" title="" points="428,908,428,937,397,937,397,908" /><polygon id="65" title="" points="393,875,393,904,364,904,364,875" /><polygon id="66" title="" points="393,908,393,937,364,937,364,908" /><polygon id="67" title="" points="320,874,320,960,268,960,268,874" /><polygon id="68" title="" points="378,984,378,1013,350,1013,350,984" /><polygon id="69" title="" points="378,1017,378,1046,350,1046,350,1017" /><polygon id="70" title="" points="378,1050,378,1078,350,1078,350,1050" /><polygon id="71" title="" points="414,1050,414,1078,383,1078,383,1050" /><polygon id="72" title="" points="414,1017,414,1046,383,1046,383,1017" /><polygon id="73" title="" points="414,984,414,1013,383,1013,383,984" /><polygon id="74" title="" points="476,985,476,1014,446,1014,446,983,446,985" /><polygon id="75" title="" points="476,1018,476,1047,446,1047,446,1048,446,1016,446,1018" /><polygon id="76" title="" points="476,1051,476,1079,446,1079,446,1080,446,1050,446,1051" /><polygon id="77" title="" points="543,986,543,1080,540,1080,540,1081,523,1081,523,1080,485,1080,485,986" /><polygon id="78" title="" points="577,986,577,983,593,983,593,986,596,986,596,1080,549,1080,549,986" /><polygon id="79" title="" points="666,1032,666,1063,636,1063,636,1032" /><polygon id="80" title="" points="703,1032,703,1063,672,1063,672,1032" /><polygon id="81" title="" points="737,1031,737,1062,709,1062,709,1031" /><polygon id="82" title="" points="739,1073,739,1102,709,1102,709,1073" /><polygon id="83" title="" points="703,1073,703,1102,672,1102,672,1073" /><polygon id="84" title="" points="666,1073,666,1102,637,1102,637,1081,636,1081,636,1080,635,1080,635,1073" /><polygon id="85" title="" points="654,1123,654,1155,637,1155,637,1152,623,1152,623,1123" /><polygon id="86" title="" points="655,1160,655,1191,637,1191,637,1189,624,1189,624,1160" /><polygon id="87" title="" points="655,1197,655,1228,637,1228,637,1225,624,1225,624,1197" /><polygon id="88" title="" points="655,1234,655,1265,637,1265,637,1264,624,1264,624,1234" /><polygon id="89" title="" points="614,1123,614,1152,590,1152,590,1155,583,1155,583,1123" /><polygon id="90" title="" points="615,1160,615,1189,590,1189,590,1191,584,1191,584,1160" /><polygon id="91" title="" points="615,1197,615,1225,590,1225,590,1228,584,1228,584,1197" /><polygon id="92" title="" points="615,1234,615,1264,584,1264,584,1234" /><polygon id="93" title="" points="490,1087,490,1118,483,1118,483,1117,459,1117,459,1087" /><polygon id="94" title="" points="489,1123,489,1155,483,1155,483,1154,458,1154,458,1123" /><polygon id="95" title="" points="490,1160,490,1191,459,1191,459,1160" /><polygon id="96" title="" points="490,1197,490,1228,483,1228,483,1227,459,1227,459,1197" /><polygon id="97" title="" points="490,1234,490,1264,459,1264,459,1234" /><polygon id="98" title="" points="450,1087,450,1117,436,1117,436,1118,419,1118,419,1087" /><polygon id="99" title="" points="450,1123,450,1154,436,1154,436,1155,419,1155,419,1123" /><polygon id="100" title="" points="450,1160,450,1191,419,1191,419,1160" /><polygon id="101" title="" points="450,1197,450,1227,436,1227,436,1228,419,1228,419,1197" /><polygon id="102" title="" points="450,1234,450,1264,427,1264,427,1265,419,1265,419,1234" /><polygon id="103" title="" points="578,1270,578,1301,441,1301,441,1298,442,1298,442,1270" /><polygon id="104" title="" points="586,1432,585,1482,435,1483,436,1434,460,1409,565,1408" /><polygon id="105" title="" points="744,1309,744,1473,713,1473,713,1309" /><polygon id="106" title="" points="739,1115,739,1247,709,1247,709,1115" /><polygon id="107" title="" points="801,1283,801,1307,803,1307,803,1319,753,1319,753,1283" /><polygon id="108" title="" points="801,1323,801,1337,803,1337,803,1358,753,1358,753,1323" /><polygon id="109" title="" points="801,1362,801,1376,803,1376,803,1397,753,1397,753,1362" /><polygon id="110" title="" points="801,1402,801,1418,803,1418,803,1436,753,1436,753,1402" /><polygon id="111" title="" points="801,1442,801,1458,803,1458,803,1476,753,1476,753,1442" /><polygon id="112" title="" points="872,1427,872,1455,843,1455,843,1427" /><polygon id="113" title="" points="872,1393,872,1422,843,1422,843,1393" /><polygon id="114" title="" points="872,1361,872,1390,843,1390,843,1361" /><polygon id="115" title="" points="872,1328,872,1357,843,1357,843,1328" /><polygon id="116" title="" points="872,1295,872,1324,843,1324,843,1295" /><polygon id="117" title="" points="907,1295,907,1324,876,1324,876,1295" /><polygon id="118" title="" points="907,1328,907,1357,876,1357,876,1328" /><polygon id="119" title="" points="907,1361,907,1390,876,1390,876,1361" /><polygon id="120" title="" points="907,1393,907,1422,876,1422,876,1393" /><polygon id="121" title="" points="907,1427,907,1458,890,1458,890,1455,876,1455,876,1427" /><polygon id="122" title="" points="963,1432,963,1482,913,1482,913,1432" /><polygon id="123" title="" points="985,1256,985,1279,940,1279,940,1256" /><polygon id="124" title="" points="965,1286,965,1283,988,1283,988,1367,941,1367,941,1286" /><polygon id="125" title="" points="1011,1431,1011,1433,1049,1433,1049,1483,970,1483,970,1433,990,1433,990,1431" /><polygon id="126" title="" points="1110,1402,1110,1464,1061,1464,1061,1466,1055,1466,1055,1420,1054,1420,1054,1402" /><polygon id="127" title="" points="1110,1334,1110,1396,1054,1396,1054,1378,1055,1378,1055,1334" /><polygon id="128" title="" points="1092,1265,1092,1264,1110,1264,1110,1328,1055,1328,1055,1265" /><polygon id="129" title="" points="1028,1265,1028,1264,1045,1264,1045,1265,1049,1265,1049,1328,994,1328,994,1265" /><polygon id="130" title="" points="1049,1334,1049,1370,1029,1370,1029,1334" /><polygon id="131" title="" points="971,1168,971,1197,940,1197,940,1168" /><polygon id="132" title="" points="971,1135,971,1164,940,1164,940,1135" /><polygon id="133" title="" points="971,1102,971,1131,940,1131,940,1102" /><polygon id="134" title="" points="1033,1110,1033,1139,1002,1139,1002,1140,1001,1140,1001,1109,1002,1109,1002,1110" /><polygon id="135" title="" points="1033,1143,1033,1172,1002,1172,1002,1173,1001,1173,1001,1142,1002,1142,1002,1143" /><polygon id="136" title="" points="1033,1176,1033,1205,1002,1205,1002,1207,1001,1207,1001,1176" /><polygon id="137" title="" points="1066,1176,1066,1205,1037,1205,1037,1176" /><polygon id="138" title="" points="1066,1143,1066,1172,1037,1172,1037,1143" /><polygon id="139" title="" points="1066,1110,1066,1139,1037,1139,1037,1110" /><polygon id="140" title="" points="1166,1146,1166,1225,1116,1225,1116,1158,1115,1158,1115,1146" /><polygon id="141" title="" points="1162,1100,1162,1129,1131,1129,1131,1131,1131,1100" /><polygon id="142" title="" points="1162,1067,1162,1096,1131,1096,1131,1066,1131,1067" /><polygon id="143" title="" points="1162,1034,1162,1063,1131,1063,1131,1033,1131,1034" /><polygon id="144" title="" points="1162,1001,1162,1030,1131,1030,1131,1031,1131,1000,1131,1001" /><polygon id="145" title="" points="1162,968,1162,997,1131,997,1131,998,1131,966,1131,968" /><polygon id="146" title="" points="1162,935,1162,964,1131,964,1131,933,1131,935" /><polygon id="147" title="" points="1162,875,1162,921,1098,921,1098,925,1082,925,1082,921,1081,921,1081,875" /><polygon id="148" title="" points="1071,874,1071,902,1036,902,1036,874" /><polygon id="149" title="" points="1031,875,1031,906,1031,903,1000,903,1000,875" /><polygon id="150" title="" points="1031,908,1031,939,1031,937,1000,937,1000,908" /><polygon id="151" title="" points="1067,972,1067,1002,1067,1001,1036,1001,1036,972" /><polygon id="152" title="" points="1085,1005,1085,1036,1069,1036,1069,1034,1054,1034,1054,1005" /><polygon id="153" title="" points="1101,1038,1101,1069,1070,1069,1070,1038" /><polygon id="154" title="" points="1065,1038,1065,1066,1049,1066,1049,1069,1035,1069,1035,1038" /><polygon id="155" title="" points="1049,1005,1049,1034,1033,1034,1033,1036,1018,1036,1018,1005" /><polygon id="156" title="" points="1031,972,1031,1001,1016,1001,1016,1002,1000,1002,1000,972" /><polygon id="157" title="" points="1010,1038,1010,1069,995,1069,995,1066,979,1066,979,1038" /><polygon id="158" title="" points="994,1005,994,1034,963,1034,963,1005" /><polygon id="159" title="" points="959,973,959,972,976,972,976,1001,946,1001,946,973" /><polygon id="160" title="" points="974,908,974,939,974,937,942,937,942,908" /><polygon id="161" title="" points="974,875,974,906,974,903,942,903,942,875" /><polygon id="162" title="" points="926,973,940,973,940,1001,926,1001,926,1002,909,1002,909,972" /><polygon id="163" title="" points="958,1005,958,1034,943,1034,943,1036,927,1036,927,1005" /><polygon id="164" title="" points="975,1038,975,1066,960,1066,960,1069,944,1069,944,1038" /><polygon id="165" title="" points="898,1037,898,1066,867,1066,867,1037" /><polygon id="166" title="" points="898,1004,898,1033,867,1033,867,1004" /><polygon id="167" title="" points="898,971,898,1000,867,1000,867,971" /><polygon id="168" title="" points="936,871,936,930,877,930,877,931,857,931,857,930,856,930,856,871" /><polygon id="169" title="" points="863,971,863,1000,834,1000,834,971" /><polygon id="170" title="" points="863,1004,863,1033,834,1033,834,1004" /><polygon id="171" title="" points="863,1037,863,1066,834,1066,834,1037" /><polygon id="172" title="" points="803,1039,803,1069,772,1069,772,1039" /><polygon id="173" title="" points="803,1006,803,1035,772,1035,772,1006" /><polygon id="174" title="" points="793,966,793,967,792,967,792,998,763,998,763,967,762,967,762,966" /><polygon id="175" title="" points="760,966,760,967,759,967,759,998,730,998,730,966" /><polygon id="176" title="" points="727,966,727,967,726,967,726,998,698,998,698,967,697,967,697,966" /><polygon id="177" title="" points="695,966,695,967,694,967,694,998,665,998,665,967,664,967,664,966" /><polygon id="178" title="" points="794,911,794,940,765,940,765,911" /><polygon id="179" title="" points="794,879,794,908,765,908,765,879" /><polygon id="180" title="" points="830,879,830,908,799,908,799,879" /><polygon id="181" title="" points="830,911,830,940,799,940,799,911" /><polygon id="182" title="" points="1228,922,1228,974,1210,974,1210,922" /><polygon id="183" title="" points="1228,988,1228,1037,1210,1037,1210,988" /><polygon id="185" title="" points="1228,1092,1228,1143,1210,1143,1210,1092" /><polygon id="186" title="" points="1228,1157,1228,1212,1210,1212,1210,1157" /><polygon id="187" title="" points="1346,1114,1346,1138,1344,1138,1344,1182,1246,1182,1246,1114" /><polygon id="188" title="" points="1314,1060,1314,1089,1318,1089,1318,1108,1246,1108,1246,1060" /><polygon id="189" title="" points="1318,992,1318,1014,1314,1014,1314,1054,1246,1054,1246,992" /><polygon id="190" title="" points="1335,914,1335,967,1338,967,1338,981,1335,981,1335,986,1246,986,1246,914" /><polygon id="191" title="" points="1335,837,1335,846,1338,846,1338,857,1335,857,1335,908,1246,908,1246,837" /><polygon id="192" title="" points="1335,733,1335,800,1338,800,1338,815,1335,815,1335,831,1246,831,1246,733" /><polygon id="193" title="" points="1436,733,1436,778,1389,778,1389,764,1388,764,1388,733" /><polygon id="194" title="" points="1436,782,1436,827,1389,827,1389,814,1388,814,1388,782" /><polygon id="195" title="" points="1435,881,1435,926,1388,926,1388,881" /><polygon id="196" title="" points="1435,930,1435,974,1388,974,1388,930" /><polygon id="197" title="" points="1392,1030,1392,1064,1372,1064,1372,1030" /><polygon id="198" title="" points="1488,930,1488,974,1440,974,1440,930" /><polygon id="199" title="" points="1488,881,1488,926,1440,926,1440,881" /><polygon id="200" title="" points="1488,782,1488,827,1441,827,1441,782" /><polygon id="201" title="" points="1488,733,1488,778,1441,778,1441,733" /><polygon id="202" title="" points="1566,733,1566,778,1517,778,1517,733" /><polygon id="203" title="" points="1566,782,1566,827,1517,827,1517,782" /><polygon id="204" title="" points="1577,883,1577,928,1529,928,1529,883" /><polygon id="205" title="" points="1577,932,1577,976,1577,975,1529,975,1529,932" /><polygon id="206" title="" points="1618,733,1618,778,1569,778,1569,733" /><polygon id="207" title="" points="1687,733,1687,781,1647,781,1647,768,1644,768,1644,733" /><polygon id="208" title="" points="1687,786,1687,815,1663,815,1663,816,1644,816,1644,786" /><polygon id="209" title="" points="1618,782,1618,827,1569,827,1569,782" /><polygon id="210" title="" points="1616,883,1616,928,1582,928,1582,883" /><polygon id="211" title="" points="1683,848,1683,893,1648,893,1648,861,1649,861,1649,848" /><polygon id="212" title="" points="1683,896,1683,941,1648,941,1648,896" /><polygon id="213" title="" points="1683,945,1683,989,1648,989,1648,945" /><polygon id="214" title="" points="1683,991,1683,1036,1648,1036,1648,991" /><polygon id="215" title="" points="1594,932,1594,930,1616,930,1616,963,1615,963,1615,976,1582,976,1582,932" /><polygon id="216" title="" points="1615,981,1615,994,1616,994,1616,1025,1582,1025,1582,981" /><polygon id="217" title="" points="1616,1028,1616,1073,1582,1073,1582,1028" /><polygon id="218" title="" points="1635,1102,1635,1140,1589,1140,1589,1104,1602,1104,1602,1102" /><polygon id="219" title="" points="1670,1102,1670,1104,1682,1104,1682,1140,1638,1140,1638,1102" /><polygon id="220" title="" points="1746,1160,1746,1182,1693,1182,1693,1160" /><polygon id="221" title="" points="1846,1108,1846,1124,1845,1124,1845,1182,1795,1182,1795,1146,1792,1146,1792,1159,1791,1159,1791,1108" /><polygon id="222" title="" points="1904,1108,1904,1124,1902,1124,1902,1182,1849,1182,1849,1108" /><polygon id="223" title="" points="1961,1108,1961,1124,1959,1124,1959,1182,1906,1182,1906,1108" /><polygon id="224" title="" points="2018,1108,2018,1182,1963,1182,1963,1108" /><polygon id="225" title="" points="1970,1012,1970,1055,1922,1055,1922,1012" /><polygon id="226" title="" points="1970,965,1970,1010,1922,1010,1922,965" /><polygon id="227" title="" points="1970,917,1970,963,1960,963,1960,961,1922,961,1922,917" /><polygon id="228" title="" points="1970,871,1970,915,1922,915,1922,871" /><polygon id="229" title="" points="1918,871,1918,915,1875,915,1875,895,1876,895,1876,871" /><polygon id="230" title="" points="1918,917,1918,961,1877,961,1877,963,1875,963,1875,917" /><polygon id="231" title="" points="1918,965,1918,1010,1875,1010,1875,965" /><polygon id="232" title="" points="1918,1012,1918,1055,1875,1055,1875,1012" /><polygon id="233" title="" points="1830,1012,1830,1056,1789,1056,1789,1012" /><polygon id="234" title="" points="1830,965,1830,1010,1789,1010,1789,965" /><polygon id="235" title="" points="1830,917,1830,963,1828,963,1828,962,1789,962,1789,917" /><polygon id="236" title="" points="1830,871,1830,915,1789,915,1789,871" /><polygon id="237" title="" points="1779,936,1779,1010,1777,1010,1777,1014,1760,1014,1760,1010,1695,1010,1695,936" /><polygon id="238" title="" points="1761,856,1761,854,1778,854,1778,856,1779,856,1779,930,1695,930,1695,856" /><polygon id="239" title="" points="1767,733,1767,815,1762,815,1762,817,1747,817,1747,815,1696,815,1696,733" /><polygon id="240" title="" points="1841,731,1841,815,1836,815,1836,817,1819,817,1819,815,1773,815,1773,731" /><polygon id="241" title="" points="1924,731,1924,815,1922,815,1922,817,1905,817,1905,815,1847,815,1847,731" /><polygon id="242" title="" points="1995,731,1995,815,1991,815,1991,817,1975,817,1975,815,1930,815,1930,731" /><polygon id="243" title="" points="2109,731,2109,815,2107,815,2107,817,2091,817,2091,815,2001,815,2001,731" /><polygon id="244" title="" points="2186,731,2186,785,2189,785,2189,804,2186,804,2186,817,2127,817,2127,815,2115,815,2115,731" /><polygon id="245" title="" points="2300,731,2300,779,2276,779,2276,804,2275,804,2275,817,2192,817,2192,731" /><polygon id="246" title="" points="2264,823,2264,893,2168,893,2168,852,2165,852,2165,823" /><polygon id="247" title="" points="2139,858,2139,857,2158,857,2158,858,2162,858,2162,930,2100,930,2100,858" /><polygon id="248" title="" points="2094,858,2094,930,2056,930,2056,877,2054,877,2054,858" /><polygon id="249" title="" points="2127,1186,2127,1208,2126,1208,2126,1232,2056,1232,2056,1208,2054,1208,2054,1186" /><polygon id="250" title="" points="2158,1186,2158,1185,2159,1185,2159,1184,2160,1184,2160,1183,2161,1183,2161,1182,2162,1182,2162,1181,2163,1181,2163,1180,2164,1180,2164,1179,2165,1179,2165,1178,2166,1178,2166,1177,2167,1177,2167,1176,2168,1176,2168,1175,2170,1175,2170,1174,2171,1174,2171,1173,2172,1173,2172,1172,2173,1172,2173,1171,2174,1171,2174,1170,2175,1170,2175,1169,2176,1169,2176,1168,2177,1168,2177,1167,2178,1167,2178,1166,2206,1166,2206,1225,2169,1225,2169,1226,2167,1226,2167,1234,2132,1234,2132,1208,2131,1208,2131,1186" /><polygon id="251" title="" points="2100,1293,2100,1340,2064,1340,2064,1343,2022,1343,2022,1291,2039,1291,2039,1293" /><polygon id="252" title="" points="2295,1134,2295,1230,2217,1230,2217,1229,2216,1229,2216,1170,2219,1170,2219,1151,2216,1151,2216,1134" /><polygon id="253" title="" points="2011,1227,2011,1343,1875,1343,1875,1227" /><polygon id="254" title="" points="1762,1222,1762,1233,1700,1233,1700,1222" /><polygon id="255" title="" points="1808,1273,1808,1324,1773,1324,1773,1273" /><polygon id="256" title="" points="1768,1273,1768,1324,1733,1324,1733,1273" /><polygon id="257" title="" points="1728,1273,1728,1324,1694,1324,1694,1273" /><polygon id="258" title="" points="1688,1273,1688,1324,1654,1324,1654,1273" /><polygon id="259" title="" points="1648,1273,1648,1324,1614,1324,1614,1273" /><polygon id="260" title="" points="1608,1273,1608,1324,1574,1324,1574,1273" /><polygon id="261" title="" points="1569,1273,1569,1324,1535,1324,1535,1273" /><polygon id="262" title="" points="1529,1273,1529,1324,1495,1324,1495,1273" /><polygon id="263" title="" points="1457,1221,1457,1287,1459,1287,1459,1309,1400,1309,1400,1221" /><polygon id="271" title="" points="1770,1225,1840,1225,1840,1259,1770,1259" /><polygon id="272" title="" points="1460,1345,1460,1314,1400,1314,1400,1345" /></svg>